<svg width="300" height="175" viewBox="0 0 300 175" fill="none" xmlns="http://www.w3.org/2000/svg">
<rect width="300" height="175" />
<path d="M70.9388 97.9757C68.9081 97.9757 67.3438 97.3705 66.2461 96.1602C65.1484 94.9498 64.5996 93.4094 64.5996 91.5388C64.5996 90.6586 64.7093 89.6958 64.9289 88.6505C65.2033 87.5502 65.5052 86.5324 65.8345 85.5971C66.548 83.3414 66.9048 81.6909 66.9048 80.6456C66.9048 78.9951 66.2736 78.1699 65.0112 78.1699C63.8037 78.1699 62.4042 79.0502 60.8125 80.8107C59.2208 82.5712 57.0803 85.4595 54.391 89.4757C53.7323 90.466 52.7444 92.144 51.4272 94.5097L49.8629 97.3155C48.875 97.3155 47.8047 97.123 46.6522 96.7379C45.4996 96.3527 44.9233 95.8301 44.9233 95.1699C44.9233 94.6197 45.4996 92.8592 46.6522 89.8883C47.7499 87.0275 48.628 84.5243 49.2866 82.3786C50.0001 80.233 50.3569 78.445 50.3569 77.0146C50.3569 75.3641 49.7806 74.5388 48.628 74.5388C47.1461 74.5388 45.2251 75.7217 42.8651 78.0874C40.505 80.3981 38.1724 83.3689 35.8672 87C33.5621 90.576 31.7783 94.1246 30.5159 97.6456C29.528 97.6456 28.3754 97.3705 27.0582 96.8204C25.6861 96.2702 25 95.8026 25 95.4175L30.269 74.2913C30.4336 73.6861 31.0099 73.1634 31.9978 72.7233C33.0407 72.2282 33.9737 71.9806 34.797 71.9806C35.6203 71.9806 36.2789 72.2282 36.7728 72.7233C37.3217 73.2184 37.5961 73.8786 37.5961 74.7039C37.5961 75.5841 37.2119 77.5647 36.4435 80.6456C39.078 77.0146 41.7948 74.0162 44.594 71.6505C47.3931 69.2298 50.0276 68.0194 52.4974 68.0194C54.3635 68.0194 55.6808 68.6796 56.4491 70C57.2724 71.3204 57.6841 72.9709 57.6841 74.9515C57.6841 75.9968 57.5743 76.9871 57.3547 77.9223C57.1352 78.8026 56.7785 80.0129 56.2845 81.5534C60.1264 75.8867 64.1056 73.0534 68.222 73.0534C70.1979 73.0534 71.6249 73.6586 72.503 74.8689C73.4361 76.0243 73.9026 77.4822 73.9026 79.2427C73.9026 81.0032 73.3537 83.479 72.256 86.6699C72.2012 86.89 71.9816 87.6052 71.5974 88.8155C71.2681 90.0259 71.1035 91.0162 71.1035 91.7864C71.1035 93.2718 71.7895 94.0146 73.1617 94.0146C75.1375 94.0146 77.0585 92.7492 78.9246 90.2184C80.8456 87.6877 82.6293 84.6618 84.2759 81.1408L85.6754 82.8738C84.0838 87 82.0256 90.5485 79.5009 93.5194C77.031 96.4903 74.177 97.9757 70.9388 97.9757Z" fill="black"/>
<path d="M88.4874 97.8932C86.6762 97.8932 85.1669 97.0404 83.9594 95.3349C82.752 93.6294 82.1482 91.6214 82.1482 89.3107C82.1482 87.3301 82.5873 84.8544 83.4655 81.8835C84.3436 78.9126 85.359 76.3269 86.5116 74.1262C87.7191 71.9256 88.7619 70.8252 89.64 70.8252C90.0242 70.8252 90.6005 71.0453 91.3689 71.4854C92.1922 71.8705 92.9057 72.3657 93.5094 72.9709C92.3568 74.6764 91.1494 77.1246 89.887 80.3155C88.6795 83.5065 88.0758 86.2573 88.0758 88.568C88.0758 89.6133 88.213 90.7136 88.4874 91.8689C88.8168 92.9693 89.5028 93.5194 90.5456 93.5194C92.5764 93.5194 94.9913 91.2637 97.7905 86.7524C100.644 82.1861 103.087 77.5647 105.118 72.8884C108.411 73.4385 110.057 74.3738 110.057 75.6942C110.057 75.8042 109.728 76.6019 109.069 78.0874C107.917 80.7832 106.929 83.2864 106.106 85.5971C105.282 87.9078 104.871 89.9158 104.871 91.6214C104.871 93.5469 105.612 94.5097 107.093 94.5097C108.246 94.5097 109.618 93.987 111.21 92.9417C112.856 91.8414 114.53 90.301 116.232 88.3204C117.933 86.2848 119.415 83.9466 120.678 81.3058L121.912 82.2961C120.705 85.267 119.141 87.9353 117.22 90.301C115.299 92.6667 113.213 94.5097 110.963 95.8301C108.767 97.2055 106.654 97.8932 104.624 97.8932C102.209 97.8932 100.644 97.068 99.931 95.4175C99.2724 93.712 98.9431 91.4563 98.9431 88.6505C97.077 91.5113 95.3206 93.767 93.6741 95.4175C92.0275 97.068 90.2987 97.8932 88.4874 97.8932Z" fill="black"/>
<path d="M128.203 99.6262C124.361 99.6262 121.507 98.4984 119.641 96.2427C117.83 94.0421 116.924 91.4013 116.924 88.3204C116.924 86.1748 117.308 84.6893 118.076 83.8641C118.845 82.9838 119.696 82.3236 120.629 81.8835C121.617 81.4434 122.193 81.1408 122.358 80.9757C125.87 77.3447 128.532 73.576 130.343 69.6699V68.8447C130.343 66.8091 130.673 65.2961 131.331 64.3058C132.045 63.3155 132.95 62.8204 134.048 62.8204C135.256 62.8204 135.914 63.3705 136.024 64.4709C136.024 64.7459 135.942 65.1586 135.777 65.7087C135.667 66.2589 135.612 66.8366 135.612 67.4417C135.612 68.4871 135.777 69.5874 136.106 70.7427C136.436 71.8981 136.957 73.466 137.67 75.4466C138.549 77.8673 139.207 79.9579 139.646 81.7184C140.14 83.479 140.387 85.267 140.387 87.0825C140.387 88.0178 140.278 89.1456 140.058 90.466C143.79 89.5307 147.028 86.4223 149.773 81.1408L150.761 81.8835C149.663 85.0194 148.126 87.5502 146.15 89.4757C144.229 91.4013 141.951 92.5566 139.317 92.9417C138.439 95.1424 137.012 96.7929 135.036 97.8932C133.06 99.0485 130.782 99.6262 128.203 99.6262ZM133.554 90.301C133.719 89.8058 133.801 88.9531 133.801 87.7427C133.746 85.9822 133.554 84.2492 133.225 82.5437C132.895 80.8382 132.402 78.6375 131.743 75.9417L131.002 72.9709C128.313 77.6472 125.925 81.0858 123.839 83.2864C124.772 84.8819 126.09 86.3398 127.791 87.6602C129.493 88.9256 131.414 89.8058 133.554 90.301ZM127.626 95.9951C128.724 95.9951 129.74 95.7201 130.673 95.1699C131.661 94.6197 132.401 93.822 132.895 92.7767C130.755 92.3366 128.779 91.5113 126.968 90.301C125.157 89.0356 123.702 87.6877 122.605 86.2573C121.836 86.4223 121.452 87.165 121.452 88.4854C121.452 90.466 122.001 92.2265 123.098 93.767C124.196 95.2524 125.706 95.9951 127.626 95.9951Z" fill="black"/>
<path d="M154.925 99.2136C152.4 99.2136 150.425 98.4709 148.998 96.9854C147.571 95.555 146.857 93.4094 146.857 90.5485C146.857 88.4029 147.269 85.6796 148.092 82.3786C148.915 79.0227 150.013 75.4741 151.385 71.733C149.958 71.4579 148.998 71.2104 148.504 70.9903V68.432C149.821 68.5971 151.138 68.7346 152.455 68.8447C154.925 62.6278 157.56 57.2913 160.359 52.8349C163.213 48.3786 165.518 46.1505 167.274 46.1505C167.878 46.1505 168.399 46.3705 168.839 46.8107C169.333 47.2508 169.579 47.8285 169.579 48.5437C169.579 49.4239 169.195 50.6068 168.427 52.0922C167.659 53.5777 166.396 55.8333 164.64 58.8592C162.225 62.9304 160.331 66.3414 158.959 69.0922C165.271 69.0922 170.293 68.8997 174.025 68.5146V71.2379C167.549 71.8981 162.033 72.2281 157.477 72.2281C154.623 78.9951 153.196 84.5243 153.196 88.8155C153.196 91.0712 153.553 92.6667 154.267 93.6019C154.98 94.5372 156.105 95.0048 157.642 95.0048C160.386 95.0048 163.185 93.767 166.039 91.2913C168.948 88.7605 171.473 85.3495 173.614 81.0582L174.766 81.8835C172.516 87 169.607 91.1812 166.039 94.4272C162.472 97.6181 158.767 99.2136 154.925 99.2136Z" fill="black"/>
<path d="M175.761 99.2961C173.84 99.2961 172.248 98.6634 170.986 97.398C169.669 96.1327 169.01 94.3447 169.01 92.034C169.01 88.843 170.163 85.267 172.468 81.3058C174.828 77.3447 177.819 73.9887 181.442 71.2379C185.064 68.4871 188.687 67.1116 192.309 67.1116C194.724 67.1116 196.727 67.7443 198.319 69.0097C199.965 70.2201 200.789 71.788 200.789 73.7136C200.789 76.2443 199.225 77.5647 196.096 77.6748C198.072 78.2799 199.06 79.1052 199.06 80.1505C199.06 80.5356 198.868 81.1133 198.484 81.8835C198.099 82.6537 197.66 83.4515 197.166 84.2767C196.288 85.7071 195.602 86.9725 195.108 88.0728C194.614 89.1181 194.367 90.1084 194.367 91.0437C194.367 91.8689 194.559 92.5841 194.943 93.1893C195.383 93.7395 196.014 94.0146 196.837 94.0146C198.374 94.0146 200.322 92.9417 202.682 90.7961C205.097 88.6505 207.43 85.432 209.68 81.1408L211.244 82.7087C209.214 87.2751 206.689 90.9612 203.67 93.767C200.652 96.5178 197.605 97.8932 194.532 97.8932C192.336 97.8932 190.635 97.1505 189.428 95.665C188.275 94.2346 187.699 92.5841 187.699 90.7136C185.229 93.6845 183.116 95.8576 181.359 97.233C179.603 98.6084 177.737 99.2961 175.761 99.2961ZM177.49 95.0874C179.411 95.0874 181.634 93.712 184.159 90.9612C186.738 88.1553 189.647 84.5243 192.885 80.068L194.532 77.8398C194.696 77.5647 194.916 77.4272 195.19 77.4272L195.52 77.5097C195.794 76.6294 195.931 75.6116 195.931 74.4563C195.931 71.5955 194.779 70.165 192.474 70.165C190.059 70.165 187.534 71.4579 184.9 74.0437C182.265 76.6294 180.042 79.7104 178.231 83.2864C176.475 86.8625 175.596 89.9159 175.596 92.4466C175.596 93.3819 175.734 94.0696 176.008 94.5097C176.337 94.8948 176.831 95.0874 177.49 95.0874Z" fill="black"/>
<path d="M207.65 118.524C206.332 118.524 205.125 117.947 204.027 116.791C202.875 115.636 202.298 113.573 202.298 110.602C202.298 104.88 204.329 95.8576 208.391 83.534C212.507 71.2103 217.337 60.2071 222.88 50.5243C228.478 40.8414 233.583 36 238.193 36C240.498 36 241.651 37.4029 241.651 40.2087C241.651 43.2346 240.553 46.6731 238.358 50.5243C236.217 54.3754 233.418 58.144 229.96 61.8301C226.503 65.4612 222.908 68.5146 219.175 70.9903L217.858 74.2913C218.407 74.5113 218.846 74.8964 219.175 75.4466C219.56 75.9968 219.807 76.5744 219.916 77.1796C220.465 80.1505 220.959 82.4336 221.398 84.0291C221.837 85.6246 222.496 86.9175 223.374 87.9078C224.307 88.8981 225.57 89.3932 227.161 89.3932C228.972 89.3932 230.592 88.733 232.019 87.4126C233.5 86.0922 235.092 84.0291 236.794 81.2233L238.605 82.5437C236.958 85.8997 235.037 88.4304 232.842 90.1359C230.701 91.8414 228.671 92.6942 226.75 92.6942C224.883 92.6942 222.935 91.9515 220.904 90.466C220.849 94.9223 220.163 99.3236 218.846 103.67C217.584 108.071 215.937 111.647 213.906 114.398C211.876 117.149 209.79 118.524 207.65 118.524ZM221.563 65.2136C224.691 62.2427 227.463 59.2718 229.878 56.301C232.293 53.3301 234.132 50.6893 235.394 48.3786C236.711 46.0129 237.37 44.3349 237.37 43.3447C237.37 42.9045 237.15 42.6845 236.711 42.6845C234.79 42.6845 232.485 44.7751 229.796 48.9563C227.106 53.0825 224.362 58.5016 221.563 65.2136ZM209.955 113.408C210.943 113.408 212.013 112.087 213.166 109.447C214.373 106.806 215.388 103.642 216.212 99.9563C217.09 96.2702 217.529 93.1068 217.529 90.466C217.529 88.9256 217.337 87.5502 216.953 86.3398C216.623 85.0744 216.02 83.644 215.141 82.0485C213.166 87.9903 211.574 93.4094 210.366 98.3058C209.214 103.202 208.638 107.053 208.638 109.859C208.638 112.225 209.077 113.408 209.955 113.408Z" fill="black"/>
<path d="M239.517 99.2961C237.596 99.2961 236.004 98.6634 234.742 97.398C233.425 96.1327 232.766 94.3447 232.766 92.034C232.766 88.843 233.919 85.267 236.224 81.3058C238.584 77.3447 241.575 73.9887 245.197 71.2379C248.82 68.4871 252.442 67.1116 256.065 67.1116C258.48 67.1116 260.483 67.7443 262.075 69.0097C263.721 70.2201 264.544 71.788 264.544 73.7136C264.544 76.2443 262.98 77.5647 259.852 77.6748C261.828 78.2799 262.816 79.1052 262.816 80.1505C262.816 80.5356 262.623 81.1133 262.239 81.8835C261.855 82.6537 261.416 83.4515 260.922 84.2767C260.044 85.7071 259.358 86.9725 258.864 88.0728C258.37 89.1181 258.123 90.1084 258.123 91.0437C258.123 91.8689 258.315 92.5841 258.699 93.1893C259.138 93.7395 259.769 94.0146 260.593 94.0146C262.129 94.0146 264.078 92.9417 266.438 90.7961C268.853 88.6505 271.185 85.432 273.436 81.1408L275 82.7087C272.969 87.2751 270.445 90.9612 267.426 93.767C264.407 96.5178 261.361 97.8932 258.287 97.8932C256.092 97.8932 254.391 97.1505 253.183 95.665C252.031 94.2346 251.454 92.5841 251.454 90.7136C248.984 93.6845 246.871 95.8576 245.115 97.233C243.359 98.6084 241.493 99.2961 239.517 99.2961ZM241.246 95.0874C243.167 95.0874 245.39 93.712 247.914 90.9612C250.494 88.1553 253.403 84.5243 256.641 80.068L258.287 77.8398C258.452 77.5647 258.672 77.4272 258.946 77.4272L259.275 77.5097C259.55 76.6294 259.687 75.6116 259.687 74.4563C259.687 71.5955 258.534 70.165 256.229 70.165C253.814 70.165 251.29 71.4579 248.655 74.0437C246.021 76.6294 243.798 79.7104 241.987 83.2864C240.23 86.8625 239.352 89.9159 239.352 92.4466C239.352 93.3819 239.489 94.0696 239.764 94.5097C240.093 94.8948 240.587 95.0874 241.246 95.0874Z" fill="black"/>
<path d="M55.5563 117.65C56.5996 117.65 57.4916 117.803 58.2324 118.109C58.9733 118.4 59.6914 118.859 60.3869 119.487L59.2076 120.819C58.618 120.344 58.0359 120 57.4614 119.785C56.9019 119.556 56.2972 119.441 55.647 119.441C54.8306 119.441 54.1578 119.632 53.6286 120.015C53.0994 120.398 52.8349 120.957 52.8349 121.691C52.8349 122.151 52.9256 122.541 53.107 122.863C53.2884 123.169 53.6211 123.452 54.1049 123.712C54.6038 123.973 55.322 124.248 56.2594 124.539C57.2421 124.845 58.0586 125.174 58.7087 125.527C59.3588 125.879 59.8804 126.369 60.2735 126.996C60.6818 127.609 60.8859 128.39 60.8859 129.339C60.8859 130.257 60.6591 131.069 60.2055 131.773C59.767 132.477 59.1245 133.029 58.2778 133.427C57.4462 133.825 56.4559 134.024 55.3069 134.024C53.1448 134.024 51.3759 133.342 50 131.98L51.1793 130.648C51.8143 131.168 52.4569 131.566 53.107 131.842C53.7571 132.102 54.4829 132.232 55.2842 132.232C56.2518 132.232 57.0531 131.995 57.6881 131.52C58.3232 131.031 58.6407 130.326 58.6407 129.408C58.6407 128.887 58.5424 128.458 58.3458 128.122C58.1493 127.77 57.8091 127.456 57.3253 127.18C56.8566 126.904 56.1687 126.629 55.2615 126.353C53.6589 125.863 52.4871 125.274 51.7463 124.585C51.0054 123.896 50.635 122.962 50.635 121.783C50.635 120.987 50.8391 120.275 51.2473 119.648C51.6707 119.02 52.2528 118.53 52.9936 118.178C53.7496 117.826 54.6038 117.65 55.5563 117.65Z" fill="black"/>
<path d="M68.4362 121.37C70.1144 121.37 71.4147 121.936 72.3369 123.069C73.2743 124.202 73.743 125.741 73.743 127.685C73.743 128.941 73.5314 130.051 73.108 131.015C72.6847 131.964 72.0723 132.707 71.271 133.243C70.4697 133.763 69.5172 134.024 68.4135 134.024C66.7353 134.024 65.4274 133.457 64.49 132.324C63.5526 131.191 63.0839 129.653 63.0839 127.708C63.0839 126.453 63.2956 125.351 63.719 124.401C64.1423 123.437 64.7546 122.694 65.5559 122.174C66.3573 121.638 67.3173 121.37 68.4362 121.37ZM68.4362 123.069C66.3648 123.069 65.3292 124.616 65.3292 127.708C65.3292 130.786 66.3573 132.324 68.4135 132.324C70.4697 132.324 71.4978 130.778 71.4978 127.685C71.4978 124.608 70.4773 123.069 68.4362 123.069Z" fill="black"/>
<path d="M81.2494 118.224C80.6144 118.224 80.1608 118.369 79.8887 118.66C79.6165 118.936 79.4804 119.372 79.4804 119.969V121.645H82.3833L82.1565 123.276H79.4804V133.748H77.394V123.276H75.2622V121.645H77.394V119.992C77.394 118.951 77.719 118.117 78.3692 117.489C79.0344 116.846 79.9567 116.524 81.136 116.524C81.6803 116.524 82.1641 116.578 82.5874 116.685C83.0259 116.777 83.4946 116.93 83.9935 117.144L83.3358 118.683C82.6555 118.377 81.96 118.224 81.2494 118.224Z" fill="black"/>
<path d="M90.819 133.197C90.0328 133.748 89.1408 134.024 88.1429 134.024C87.1299 134.024 86.3361 133.733 85.7616 133.151C85.2022 132.554 84.9225 131.697 84.9225 130.579V123.276H82.836V121.645H84.9225V118.913L87.0089 118.66V121.645H89.8438L89.617 123.276H87.0089V130.487C87.0089 131.115 87.1148 131.574 87.3264 131.865C87.5532 132.141 87.9237 132.278 88.4377 132.278C88.9064 132.278 89.4356 132.118 90.0252 131.796L90.819 133.197Z" fill="black"/>
<path d="M106.634 121.645L103.912 133.748H101.077L98.9908 123.552L96.8363 133.748H94.0695L91.28 121.645H93.3665L95.521 132.278L97.8796 121.645H100.215L102.461 132.278L104.638 121.645H106.634Z" fill="black"/>
<path d="M117.022 130.923C117.022 131.413 117.105 131.781 117.272 132.026C117.438 132.255 117.688 132.431 118.02 132.554L117.544 134.024C116.924 133.947 116.425 133.771 116.047 133.495C115.669 133.22 115.389 132.791 115.208 132.209C114.407 133.419 113.22 134.024 111.647 134.024C110.468 134.024 109.538 133.687 108.858 133.013C108.178 132.34 107.837 131.459 107.837 130.372C107.837 129.086 108.291 128.099 109.198 127.41C110.12 126.721 111.421 126.376 113.099 126.376H114.936V125.481C114.936 124.623 114.732 124.011 114.324 123.643C113.915 123.276 113.288 123.092 112.441 123.092C111.564 123.092 110.491 123.307 109.221 123.735L108.699 122.197C110.181 121.645 111.557 121.37 112.827 121.37C114.233 121.37 115.284 121.722 115.979 122.426C116.675 123.115 117.022 124.103 117.022 125.389V130.923ZM112.124 132.439C113.318 132.439 114.256 131.811 114.936 130.556V127.777H113.371C111.164 127.777 110.06 128.604 110.06 130.257C110.06 130.977 110.234 131.52 110.582 131.888C110.929 132.255 111.443 132.439 112.124 132.439Z" fill="black"/>
<path d="M126.501 121.37C126.924 121.37 127.317 121.416 127.68 121.508L127.295 123.575C126.932 123.483 126.584 123.437 126.251 123.437C125.511 123.437 124.913 123.712 124.46 124.263C124.006 124.815 123.651 125.672 123.394 126.836V133.748H121.307V121.645H123.099L123.303 124.103C123.621 123.199 124.052 122.518 124.596 122.059C125.14 121.6 125.775 121.37 126.501 121.37Z" fill="black"/>
<path d="M138.395 127.341C138.395 127.693 138.38 128.053 138.35 128.42H130.73C130.82 129.752 131.153 130.732 131.728 131.36C132.302 131.987 133.043 132.301 133.95 132.301C134.525 132.301 135.054 132.217 135.538 132.049C136.022 131.88 136.528 131.612 137.057 131.245L137.964 132.508C136.694 133.518 135.303 134.024 133.791 134.024C132.128 134.024 130.828 133.472 129.891 132.37C128.968 131.268 128.507 129.752 128.507 127.823C128.507 126.568 128.704 125.458 129.097 124.493C129.505 123.513 130.08 122.748 130.82 122.197C131.576 121.645 132.461 121.37 133.474 121.37C135.061 121.37 136.279 121.898 137.125 122.954C137.972 124.011 138.395 125.473 138.395 127.341ZM136.331 126.721C136.331 125.527 136.097 124.616 135.628 123.988C135.16 123.36 134.457 123.046 133.519 123.046C131.811 123.046 130.881 124.317 130.73 126.859H136.331V126.721Z" fill="black"/>
<path d="M151.108 117.925C153.467 117.925 155.357 118.484 156.778 119.602C158.214 120.704 158.933 122.755 158.933 125.756C158.933 128.68 158.214 130.747 156.778 131.957C155.357 133.151 153.626 133.748 151.585 133.748H147.843V117.925H151.108ZM149.997 119.67V132.026H151.743C153.195 132.026 154.374 131.574 155.281 130.671C156.188 129.767 156.642 128.129 156.642 125.756C156.642 124.087 156.408 122.809 155.939 121.921C155.47 121.018 154.873 120.421 154.147 120.13C153.422 119.824 152.567 119.67 151.585 119.67H149.997Z" fill="black"/>
<path d="M171.35 127.341C171.35 127.693 171.335 128.053 171.305 128.42H163.685C163.776 129.752 164.108 130.732 164.683 131.36C165.257 131.987 165.998 132.301 166.905 132.301C167.48 132.301 168.009 132.217 168.493 132.049C168.977 131.88 169.483 131.612 170.012 131.245L170.92 132.508C169.65 133.518 168.259 134.024 166.747 134.024C165.084 134.024 163.783 133.472 162.846 132.37C161.924 131.268 161.463 129.752 161.463 127.823C161.463 126.568 161.659 125.458 162.052 124.493C162.46 123.513 163.035 122.748 163.776 122.197C164.532 121.645 165.416 121.37 166.429 121.37C168.017 121.37 169.234 121.898 170.08 122.954C170.927 124.011 171.35 125.473 171.35 127.341ZM169.287 126.721C169.287 125.527 169.052 124.616 168.584 123.988C168.115 123.36 167.412 123.046 166.475 123.046C164.766 123.046 163.836 124.317 163.685 126.859H169.287V126.721Z" fill="black"/>
<path d="M183.371 121.645L179.311 133.748H176.794L172.666 121.645H174.934L178.064 131.865L181.171 121.645H183.371Z" fill="black"/>
<path d="M194.694 127.341C194.694 127.693 194.679 128.053 194.648 128.42H187.028C187.119 129.752 187.452 130.732 188.026 131.36C188.601 131.987 189.342 132.301 190.249 132.301C190.823 132.301 191.352 132.217 191.836 132.049C192.32 131.88 192.827 131.612 193.356 131.245L194.263 132.508C192.993 133.518 191.602 134.024 190.09 134.024C188.427 134.024 187.127 133.472 186.189 132.37C185.267 131.268 184.806 129.752 184.806 127.823C184.806 126.568 185.002 125.458 185.395 124.493C185.804 123.513 186.378 122.748 187.119 122.197C187.875 121.645 188.759 121.37 189.772 121.37C191.36 121.37 192.577 121.898 193.424 122.954C194.27 124.011 194.694 125.473 194.694 127.341ZM192.63 126.721C192.63 125.527 192.396 124.616 191.927 123.988C191.458 123.36 190.755 123.046 189.818 123.046C188.109 123.046 187.18 124.317 187.028 126.859H192.63V126.721Z" fill="black"/>
<path d="M200.407 134.024C199.636 134.024 199.024 133.794 198.57 133.335C198.132 132.86 197.912 132.202 197.912 131.36V116.777L199.999 116.524V131.314C199.999 131.651 200.052 131.896 200.158 132.049C200.279 132.202 200.475 132.278 200.747 132.278C201.035 132.278 201.292 132.232 201.518 132.141L202.063 133.61C201.564 133.886 201.012 134.024 200.407 134.024Z" fill="black"/>
<path d="M209.05 121.37C210.728 121.37 212.028 121.936 212.95 123.069C213.888 124.202 214.357 125.741 214.357 127.685C214.357 128.941 214.145 130.051 213.722 131.015C213.298 131.964 212.686 132.707 211.885 133.243C211.083 133.763 210.131 134.024 209.027 134.024C207.349 134.024 206.041 133.457 205.104 132.324C204.166 131.191 203.697 129.653 203.697 127.708C203.697 126.453 203.909 125.351 204.333 124.401C204.756 123.437 205.368 122.694 206.169 122.174C206.971 121.638 207.931 121.37 209.05 121.37ZM209.05 123.069C206.978 123.069 205.943 124.616 205.943 127.708C205.943 130.786 206.971 132.324 209.027 132.324C211.083 132.324 212.111 130.778 212.111 127.685C212.111 124.608 211.091 123.069 209.05 123.069Z" fill="black"/>
<path d="M223.292 121.37C224.819 121.37 225.938 121.921 226.648 123.023C227.359 124.126 227.714 125.68 227.714 127.685C227.714 129.584 227.306 131.115 226.489 132.278C225.673 133.442 224.516 134.024 223.02 134.024C221.689 134.024 220.646 133.564 219.89 132.646V138.387L217.803 138.64V121.645H219.595L219.754 123.276C220.192 122.664 220.721 122.197 221.341 121.875C221.961 121.538 222.611 121.37 223.292 121.37ZM222.521 132.301C224.486 132.301 225.469 130.763 225.469 127.685C225.469 124.593 224.569 123.046 222.77 123.046C222.18 123.046 221.644 123.222 221.16 123.575C220.676 123.927 220.253 124.378 219.89 124.929V130.832C220.192 131.306 220.57 131.674 221.024 131.934C221.477 132.179 221.976 132.301 222.521 132.301Z" fill="black"/>
<path d="M240.295 127.341C240.295 127.693 240.28 128.053 240.25 128.42H232.63C232.72 129.752 233.053 130.732 233.628 131.36C234.202 131.987 234.943 132.301 235.85 132.301C236.425 132.301 236.954 132.217 237.438 132.049C237.921 131.88 238.428 131.612 238.957 131.245L239.864 132.508C238.594 133.518 237.203 134.024 235.691 134.024C234.028 134.024 232.728 133.472 231.791 132.37C230.868 131.268 230.407 129.752 230.407 127.823C230.407 126.568 230.604 125.458 230.997 124.493C231.405 123.513 231.98 122.748 232.72 122.197C233.476 121.645 234.361 121.37 235.374 121.37C236.961 121.37 238.179 121.898 239.025 122.954C239.872 124.011 240.295 125.473 240.295 127.341ZM238.231 126.721C238.231 125.527 237.997 124.616 237.528 123.988C237.06 123.36 236.357 123.046 235.419 123.046C233.711 123.046 232.781 124.317 232.63 126.859H238.231V126.721Z" fill="black"/>
<path d="M248.821 121.37C249.244 121.37 249.637 121.416 250 121.508L249.614 123.575C249.252 123.483 248.904 123.437 248.571 123.437C247.83 123.437 247.233 123.712 246.78 124.263C246.326 124.815 245.971 125.672 245.714 126.836V133.748H243.627V121.645H245.419L245.623 124.103C245.94 123.199 246.371 122.518 246.916 122.059C247.46 121.6 248.095 121.37 248.821 121.37Z" fill="black"/>
</svg>
