<svg fill="currentColor" xmlns="http://www.w3.org/2000/svg" width="690" height="630">
  <path fill-rule="evenodd" d="M0 467L206 0l139 307-71 160H0zm345-160L484 0l206 467H416l-71-160z" clip-rule="evenodd"/>
  <path fill-rule="evenodd" d="M256 531.5c0 .275-1.125.5-2.5.5s-2.5.225-2.5.5-.9.5-2 .5-2 .225-2 .5-.675.5-1.5.5-1.5.225-1.5.5-.45.5-1 .5-1 .225-1 .5-.625.5-1.389.5c-.816 0-1.687.413-2.111 1-.396.55-1.072 1-1.5 1-.428 0-1.104.45-1.5 1-.396.55-1.015 1-1.374 1-.849 0-5.126 4.277-5.126 5.127 0 .359-.45.977-1 1.373s-1 1.121-1 1.61c0 .489-.225.89-.5.89s-.5.45-.5 1-.225 1-.5 1-.5.45-.5 1-.225 1-.5 1-.5 1.125-.5 2.5-.225 2.5-.5 2.5c-.278 0-.5 1.334-.5 3s.222 3 .5 3c.275 0 .5 1.125.5 2.5s.225 2.5.5 2.5.5.45.5 1 .225 1 .5 1 .5.45.5 1 .225 1 .5 1 .5.341.5.758c0 .922 7.222 8.242 8.132 8.242.356 0 .972.45 1.368 1 .396.55 1.121 1 1.611 1 .489 0 .889.225.889.5s.45.5 1 .5 1 .225 1 .5.675.5 1.5.5 1.5.225 1.5.5.675.5 1.5.5 1.5.225 1.5.5.675.5 1.5.5 1.5.225 1.5.5.9.5 2 .5 2 .225 2 .5.9.5 2 .5 2 .225 2 .5.675.5 1.5.5 1.5.225 1.5.5.675.5 1.5.5 1.5.225 1.5.5.675.5 1.5.5 1.5.225 1.5.5.45.5 1 .5 1 .225 1 .5.347.5.772.5c1.001 0 3.228 2.227 3.228 3.227 0 .425.225.773.5.773s.5 1.125.5 2.5-.225 2.5-.5 2.5-.5.45-.5 1c0 .626-.333 1-.889 1-.49 0-1.215.45-1.611 1-.424.587-1.295 1-2.111 1-.764 0-1.389.225-1.389.5 0 .303-2.167.5-5.5.5s-5.5-.197-5.5-.5c0-.275-.9-.5-2-.5s-2-.225-2-.5-.675-.5-1.5-.5-1.5-.225-1.5-.5-.45-.5-1-.5-1-.225-1-.5-.625-.5-1.389-.5c-.816 0-1.687-.413-2.111-1-.396-.55-1.031-1-1.41-1s-1.319-.675-2.09-1.5c-.771-.825-1.761-1.5-2.201-1.5-.44 0-.799-.225-.799-.5 0-1.252-1.799-.253-4.5 2.5-1.62 1.65-3.184 3-3.478 3-.293 0-2.9 2.366-5.792 5.258l-5.259 5.259 1.242 1.241c.683.683 1.499 1.242 1.813 1.242.315 0 1.203.675 1.974 1.5.771.825 1.761 1.5 2.201 1.5.44 0 .799.225.799.5s.45.5 1 .5 1 .225 1 .5.45.5 1 .5 1 .225 1 .5.45.5 1 .5 1 .225 1 .5.45.5 1 .5 1 .225 1 .5.675.5 1.5.5 1.5.225 1.5.5.675.5 1.5.5 1.5.225 1.5.5.9.5 2 .5 2 .225 2 .5 1.125.5 2.5.5 2.5.225 2.5.5c0 .315 3.333.5 9 .5s9-.185 9-.5c0-.275 1.125-.5 2.5-.5s2.5-.225 2.5-.5.9-.5 2-.5 2-.225 2-.5.45-.5 1-.5 1-.225 1-.5.45-.5 1-.5 1-.225 1-.5.45-.5 1-.5 1-.225 1-.5.4-.5.889-.5c.49 0 1.215-.45 1.611-1 .396-.55 1.012-1 1.368-1 .356 0 2.332-1.684 4.39-3.742s3.742-4.033 3.742-4.389c0-.357.45-.973 1-1.369s1-1.121 1-1.61c0-.489.225-.89.5-.89s.5-.675.5-1.5.225-1.5.5-1.5.5-.9.5-2 .225-2 .5-2c.296 0 .5-1.833.5-4.5s-.204-4.5-.5-4.5c-.275 0-.5-.9-.5-2s-.225-2-.5-2-.5-.45-.5-1-.225-1-.5-1-.5-.401-.5-.89-.45-1.214-1-1.61c-.55-.396-1-1.014-1-1.373 0-.85-4.277-5.127-5.126-5.127-.359 0-.978-.45-1.374-1-.396-.55-1.121-1-1.611-1-.489 0-.889-.225-.889-.5s-.45-.5-1-.5-1-.225-1-.5-.45-.5-1-.5-1-.225-1-.5-.45-.5-1-.5-1-.225-1-.5-.45-.5-1-.5-1-.225-1-.5-.675-.5-1.5-.5-1.5-.225-1.5-.5-.9-.5-2-.5-2-.225-2-.5-.675-.5-1.5-.5-1.5-.225-1.5-.5-.9-.5-2-.5-2-.225-2-.5-.675-.5-1.5-.5-1.5-.225-1.5-.5-.675-.5-1.5-.5-1.5-.225-1.5-.5-.675-.5-1.5-.5-1.5-.225-1.5-.5-.347-.5-.772-.5c-1.001 0-3.228-2.227-3.228-3.227 0-.425-.225-.773-.5-.773s-.5-.795-.5-1.766c0-1.35.409-2.177 1.733-3.5.953-.954 2.078-1.734 2.5-1.734.422 0 .767-.225.767-.5s.675-.5 1.5-.5 1.5-.225 1.5-.5c0-.303 2.167-.5 5.5-.5s5.5.197 5.5.5c0 .275.675.5 1.5.5s1.5.225 1.5.5.675.5 1.5.5 1.5.225 1.5.5.4.5.889.5c.49 0 1.215.45 1.611 1 .396.55 1.031 1 1.41 1s1.319.675 2.09 1.5c1.365 1.461 3 2.006 3 1 0-.275.339-.5.754-.5.414 0 4.245-3.492 8.513-7.76l7.759-7.759-1.24-1.241c-.682-.682-1.539-1.24-1.903-1.24-.364 0-.987-.45-1.383-1s-1.121-1-1.611-1c-.489 0-.889-.225-.889-.5s-.45-.5-1-.5-1-.225-1-.5-.45-.5-1-.5-1-.225-1-.5-.45-.5-1-.5-1-.225-1-.5-.675-.5-1.5-.5-1.5-.225-1.5-.5-.675-.5-1.5-.5-1.5-.225-1.5-.5-.9-.5-2-.5-2-.225-2-.5c0-.278-1.334-.5-3-.5s-3-.222-3-.5c0-.311-2.833-.5-7.5-.5s-7.5.189-7.5.5zm-254 49V627h23v-16c0-10.333.177-16 .5-16 .275 0 .5.675.5 1.5s.225 1.5.5 1.5.5.45.5 1 .225 1 .5 1 .5.675.5 1.5.225 1.5.5 1.5.5.45.5 1 .225 1 .5 1 .5.675.5 1.5.225 1.5.5 1.5.5.45.5 1 .225 1 .5 1 .5.675.5 1.5.225 1.5.5 1.5.5.45.5 1 .225 1 .5 1 .5.675.5 1.5.225 1.5.5 1.5.5.45.5 1 .225 1 .5 1 .5.675.5 1.5.225 1.5.5 1.5.5.45.5 1 .225 1 .5 1 .5.45.5 1c0 .974.3335 1 12.5 1s12.5-.026 12.5-1c0-.55.225-1 .5-1s.5-.45.5-1 .225-1 .5-1 .5-.675.5-1.5.225-1.5.5-1.5.5-.45.5-1 .225-1 .5-1 .5-.675.5-1.5.225-1.5.5-1.5.5-.45.5-1 .225-1 .5-1 .5-.675.5-1.5.225-1.5.5-1.5.5-.45.5-1 .225-1 .5-1 .5-.675.5-1.5.225-1.5.5-1.5.5-.45.5-1 .225-1 .5-1 .5-.675.5-1.5.225-1.5.5-1.5.5-.45.5-1 .225-1 .5-1 .5-.675.5-1.5.225-1.5.5-1.5c.323 0 .5 5.667.5 16v16h23v-93H87c-11.6665 0-12 .028-12 1 0 .55-.225 1-.5 1s-.5.45-.5 1-.225 1-.5 1-.5.675-.5 1.5-.225 1.5-.5 1.5-.5.45-.5 1-.225 1-.5 1-.5.675-.5 1.5-.225 1.5-.5 1.5-.5.45-.5 1-.225 1-.5 1-.5.675-.5 1.5-.225 1.5-.5 1.5-.5.45-.5 1-.225 1-.5 1-.5.675-.5 1.5-.225 1.5-.5 1.5-.5.45-.5 1-.225 1-.5 1-.5.675-.5 1.5-.225 1.5-.5 1.5-.5.45-.5 1-.225 1-.5 1-.5.675-.5 1.5-.225 1.5-.5 1.5-.5.45-.5 1-.225 1-.5 1-.5.675-.5 1.5-.225 1.5-.5 1.5-.5.45-.5 1-.225 1-.5 1-.5.675-.5 1.5-.225 1.5-.5 1.5-.5.45-.5 1-.225 1-.5 1-.5.675-.5 1.5-.225 1.5-.5 1.5-.5.45-.5 1-.225 1-.5 1-.5.675-.5 1.5-.225 1.5-.5 1.5-.5.45-.5 1-.225 1-.5 1-.5.675-.5 1.5-.225 1.5-.5 1.5-.5.45-.5 1-.225 1-.5 1-.5.45-.5 1-.225 1-.5 1-.5-.45-.5-1-.225-1-.5-1-.5-.45-.5-1-.225-1-.5-1-.5-.675-.5-1.5-.225-1.5-.5-1.5-.5-.45-.5-1-.225-1-.5-1-.5-.675-.5-1.5-.225-1.5-.5-1.5-.5-.45-.5-1-.225-1-.5-1-.5-.675-.5-1.5-.225-1.5-.5-1.5-.5-.45-.5-1-.225-1-.5-1-.5-.675-.5-1.5-.225-1.5-.5-1.5-.5-.45-.5-1-.225-1-.5-1-.5-.675-.5-1.5-.225-1.5-.5-1.5-.5-.45-.5-1-.225-1-.5-1-.5-.675-.5-1.5-.225-1.5-.5-1.5-.5-.45-.5-1-.225-1-.5-1-.5-.675-.5-1.5-.225-1.5-.5-1.5-.5-.45-.5-1-.225-1-.5-1-.5-.675-.5-1.5-.225-1.5-.5-1.5-.5-.45-.5-1-.225-1-.5-1-.5-.675-.5-1.5-.225-1.5-.5-1.5-.5-.45-.5-1-.225-1-.5-1-.5-.675-.5-1.5-.225-1.5-.5-1.5-.5-.45-.5-1-.225-1-.5-1-.5-.675-.5-1.5-.225-1.5-.5-1.5-.5-.45-.5-1-.225-1-.5-1-.5-.45-.5-1c0-.972-.3335-1-12-1H2v46.5zm116-17c0 19.333.173 29.5.5 29.5.275 0 .5 1.125.5 2.5s.225 2.5.5 2.5.5.675.5 1.5.225 1.5.5 1.5.5.45.5 1 .225 1 .5 1 .5.45.5 1 .225 1 .5 1 .5.45.5 1 .225 1 .5 1 .5.401.5.89.45 1.214 1 1.61c.55.396 1 1.012 1 1.367 0 .844 8.289 9.133 9.133 9.133.355 0 .971.45 1.367 1s1.121 1 1.611 1c.489 0 .889.225.889.5s.45.5 1 .5 1 .225 1 .5.45.5 1 .5 1 .225 1 .5.675.5 1.5.5 1.5.225 1.5.5.675.5 1.5.5 1.5.225 1.5.5 1.125.5 2.5.5 2.5.225 2.5.5c0 .306 2.333.5 6 .5s6-.194 6-.5c0-.275 1.125-.5 2.5-.5s2.5-.225 2.5-.5.675-.5 1.5-.5 1.5-.225 1.5-.5.675-.5 1.5-.5 1.5-.225 1.5-.5.45-.5 1-.5 1-.225 1-.5.45-.5 1-.5 1-.225 1-.5.4-.5.889-.5c.49 0 1.215-.45 1.611-1 .396-.55 1.012-1 1.367-1 .844 0 9.133-8.289 9.133-9.133 0-.355.45-.971 1-1.367s1-1.121 1-1.61c0-.489.225-.89.5-.89s.5-.45.5-1 .225-1 .5-1 .5-.45.5-1 .225-1 .5-1 .5-.45.5-1 .225-1 .5-1 .5-.675.5-1.5.225-1.5.5-1.5.5-1.125.5-2.5.225-2.5.5-2.5c.327 0 .5-10.167.5-29.5V534h-23v28.5c0 18.667-.173 28.5-.5 28.5-.275 0-.5.675-.5 1.5s-.225 1.5-.5 1.5-.5.401-.5.89-.45 1.214-1 1.61c-.55.396-1 1.019-1 1.383 0 .858-2.259 3.117-3.117 3.117-.364 0-.987.45-1.383 1s-1.121 1-1.611 1c-.489 0-.889.225-.889.5s-.675.5-1.5.5-1.5.225-1.5.5c0 .3-2 .5-5 .5s-5-.2-5-.5c0-.275-.675-.5-1.5-.5s-1.5-.225-1.5-.5-.4-.5-.889-.5c-.49 0-1.215-.45-1.611-1-.396-.55-1.019-1-1.383-1-.858 0-3.117-2.259-3.117-3.117 0-.364-.45-.987-1-1.383s-1-1.121-1-1.61c0-.489-.225-.89-.5-.89s-.5-.675-.5-1.5-.225-1.5-.5-1.5c-.327 0-.5-9.833-.5-28.5V534h-23v29.5zm197-18V557h30v70h23v-70h29v-23h-82v11.5zM440 535c0 .55-.225 1-.5 1s-.5.675-.5 1.5-.225 1.5-.5 1.5-.5.45-.5 1-.225 1-.5 1-.5.675-.5 1.5-.225 1.5-.5 1.5-.5.45-.5 1-.225 1-.5 1-.5.675-.5 1.5-.225 1.5-.5 1.5-.5.675-.5 1.5-.225 1.5-.5 1.5-.5.45-.5 1-.225 1-.5 1-.5.675-.5 1.5-.225 1.5-.5 1.5-.5.45-.5 1-.225 1-.5 1-.5.675-.5 1.5-.225 1.5-.5 1.5-.5.45-.5 1-.225 1-.5 1-.5.675-.5 1.5-.225 1.5-.5 1.5-.5.45-.5 1-.225 1-.5 1-.5.675-.5 1.5-.225 1.5-.5 1.5-.5.675-.5 1.5-.225 1.5-.5 1.5-.5.45-.5 1-.225 1-.5 1-.5.675-.5 1.5-.225 1.5-.5 1.5-.5.45-.5 1-.225 1-.5 1-.5.675-.5 1.5-.225 1.5-.5 1.5-.5.45-.5 1-.225 1-.5 1-.5.675-.5 1.5-.225 1.5-.5 1.5-.5.45-.5 1-.225 1-.5 1-.5.675-.5 1.5-.225 1.5-.5 1.5-.5.675-.5 1.5-.225 1.5-.5 1.5-.5.45-.5 1-.225 1-.5 1-.5.675-.5 1.5-.225 1.5-.5 1.5-.5.45-.5 1-.225 1-.5 1-.5.675-.5 1.5-.225 1.5-.5 1.5-.5.45-.5 1-.225 1-.5 1-.5.675-.5 1.5-.225 1.5-.5 1.5-.5.45-.5 1-.225 1-.5 1-.5.675-.5 1.5-.225 1.5-.5 1.5-.5.675-.5 1.5-.225 1.5-.5 1.5-.5.45-.5 1-.225 1-.5 1-.5.675-.5 1.5-.225 1.5-.5 1.5-.5.225-.5.5c0 .32 4.5.5 12.5.5 12.167 0 12.5-.026 12.5-1 0-.55.225-1 .5-1s.5-.45.5-1 .225-1 .5-1 .5-.675.5-1.5.225-1.5.5-1.5.5-.45.5-1 .225-1 .5-1 .5-.354.5-.786c0-2.156.51-2.214 19.487-2.214h18.058l1.228 1.227c.675.675 1.227 1.8 1.227 2.5s.225 1.273.5 1.273.5.675.5 1.5.225 1.5.5 1.5.5.45.5 1 .225 1 .5 1 .5.45.5 1c0 .974.333 1 12.5 1 8 0 12.5-.18 12.5-.5 0-.275-.225-.5-.5-.5s-.5-.675-.5-1.5-.225-1.5-.5-1.5-.5-.675-.5-1.5-.225-1.5-.5-1.5-.5-.45-.5-1-.225-1-.5-1-.5-.675-.5-1.5-.225-1.5-.5-1.5-.5-.45-.5-1-.225-1-.5-1-.5-.675-.5-1.5-.225-1.5-.5-1.5-.5-.45-.5-1-.225-1-.5-1-.5-.675-.5-1.5-.225-1.5-.5-1.5-.5-.45-.5-1-.225-1-.5-1-.5-.675-.5-1.5-.225-1.5-.5-1.5-.5-.45-.5-1-.225-1-.5-1-.5-.675-.5-1.5-.225-1.5-.5-1.5-.5-.675-.5-1.5-.225-1.5-.5-1.5-.5-.45-.5-1-.225-1-.5-1-.5-.675-.5-1.5-.225-1.5-.5-1.5-.5-.45-.5-1-.225-1-.5-1-.5-.675-.5-1.5-.225-1.5-.5-1.5-.5-.45-.5-1-.225-1-.5-1-.5-.675-.5-1.5-.225-1.5-.5-1.5-.5-.45-.5-1-.225-1-.5-1-.5-.675-.5-1.5-.225-1.5-.5-1.5-.5-.45-.5-1-.225-1-.5-1-.5-.675-.5-1.5-.225-1.5-.5-1.5-.5-.675-.5-1.5-.225-1.5-.5-1.5-.5-.45-.5-1-.225-1-.5-1-.5-.675-.5-1.5-.225-1.5-.5-1.5-.5-.45-.5-1-.225-1-.5-1-.5-.675-.5-1.5-.225-1.5-.5-1.5-.5-.45-.5-1-.225-1-.5-1-.5-.675-.5-1.5-.225-1.5-.5-1.5-.5-.45-.5-1-.225-1-.5-1-.5-.675-.5-1.5-.225-1.5-.5-1.5-.5-.45-.5-1-.225-1-.5-1-.5-.675-.5-1.5-.225-1.5-.5-1.5-.5-.675-.5-1.5-.225-1.5-.5-1.5-.5-.45-.5-1c0-.974-.333-1-12.5-1s-12.5.026-12.5 1zm77 45.5V627h23v-35h40v-22h-40v-13h51v-23h-74v46.5zM628 535c0 .55-.225 1-.5 1s-.5.675-.5 1.5-.225 1.5-.5 1.5-.5.45-.5 1-.225 1-.5 1-.5.675-.5 1.5-.225 1.5-.5 1.5-.5.45-.5 1-.225 1-.5 1-.5.675-.5 1.5-.225 1.5-.5 1.5-.5.675-.5 1.5-.225 1.5-.5 1.5-.5.45-.5 1-.225 1-.5 1-.5.675-.5 1.5-.225 1.5-.5 1.5-.5.45-.5 1-.225 1-.5 1-.5.675-.5 1.5-.225 1.5-.5 1.5-.5.45-.5 1-.225 1-.5 1-.5.675-.5 1.5-.225 1.5-.5 1.5-.5.45-.5 1-.225 1-.5 1-.5.675-.5 1.5-.225 1.5-.5 1.5-.5.675-.5 1.5-.225 1.5-.5 1.5-.5.45-.5 1-.225 1-.5 1-.5.675-.5 1.5-.225 1.5-.5 1.5-.5.45-.5 1-.225 1-.5 1-.5.675-.5 1.5-.225 1.5-.5 1.5-.5.45-.5 1-.225 1-.5 1-.5.675-.5 1.5-.225 1.5-.5 1.5-.5.45-.5 1-.225 1-.5 1-.5.675-.5 1.5-.225 1.5-.5 1.5-.5.675-.5 1.5-.225 1.5-.5 1.5-.5.45-.5 1-.225 1-.5 1-.5.675-.5 1.5-.225 1.5-.5 1.5-.5.45-.5 1-.225 1-.5 1-.5.675-.5 1.5-.225 1.5-.5 1.5-.5.45-.5 1-.225 1-.5 1-.5.675-.5 1.5-.225 1.5-.5 1.5-.5.45-.5 1-.225 1-.5 1-.5.675-.5 1.5-.225 1.5-.5 1.5-.5.675-.5 1.5-.225 1.5-.5 1.5-.5.45-.5 1-.225 1-.5 1-.5.675-.5 1.5-.225 1.5-.5 1.5-.5.225-.5.5c0 .32 4.5.5 12.5.5 12.167 0 12.5-.026 12.5-1 0-.55.225-1 .5-1s.5-.45.5-1 .225-1 .5-1 .5-.675.5-1.5.225-1.5.5-1.5.5-.45.5-1 .225-1 .5-1 .5-.354.5-.786c0-2.156.51-2.214 19.487-2.214h18.058l1.228 1.227c.675.675 1.227 1.8 1.227 2.5s.225 1.273.5 1.273.5.675.5 1.5.225 1.5.5 1.5.5.45.5 1 .225 1 .5 1 .5.45.5 1c0 .974.333 1 12.5 1 8 0 12.5-.18 12.5-.5 0-.275-.225-.5-.5-.5s-.5-.675-.5-1.5-.225-1.5-.5-1.5-.5-.675-.5-1.5-.225-1.5-.5-1.5-.5-.45-.5-1-.225-1-.5-1-.5-.675-.5-1.5-.225-1.5-.5-1.5-.5-.45-.5-1-.225-1-.5-1-.5-.675-.5-1.5-.225-1.5-.5-1.5-.5-.45-.5-1-.225-1-.5-1-.5-.675-.5-1.5-.225-1.5-.5-1.5-.5-.45-.5-1-.225-1-.5-1-.5-.675-.5-1.5-.225-1.5-.5-1.5-.5-.45-.5-1-.225-1-.5-1-.5-.675-.5-1.5-.225-1.5-.5-1.5-.5-.675-.5-1.5-.225-1.5-.5-1.5-.5-.45-.5-1-.225-1-.5-1-.5-.675-.5-1.5-.225-1.5-.5-1.5-.5-.45-.5-1-.225-1-.5-1-.5-.675-.5-1.5-.225-1.5-.5-1.5-.5-.45-.5-1-.225-1-.5-1-.5-.675-.5-1.5-.225-1.5-.5-1.5-.5-.45-.5-1-.225-1-.5-1-.5-.675-.5-1.5-.225-1.5-.5-1.5-.5-.45-.5-1-.225-1-.5-1-.5-.675-.5-1.5-.225-1.5-.5-1.5-.5-.675-.5-1.5-.225-1.5-.5-1.5-.5-.45-.5-1-.225-1-.5-1-.5-.675-.5-1.5-.225-1.5-.5-1.5-.5-.45-.5-1-.225-1-.5-1-.5-.675-.5-1.5-.225-1.5-.5-1.5-.5-.45-.5-1-.225-1-.5-1-.5-.675-.5-1.5-.225-1.5-.5-1.5-.5-.45-.5-1-.225-1-.5-1-.5-.675-.5-1.5-.225-1.5-.5-1.5-.5-.45-.5-1-.225-1-.5-1-.5-.675-.5-1.5-.225-1.5-.5-1.5-.5-.675-.5-1.5-.225-1.5-.5-1.5-.5-.45-.5-1c0-.974-.333-1-12.5-1s-12.5.026-12.5 1zm-175 33c0 .55.225 1 .5 1s.5.45.5 1 .225 1 .5 1 .5.675.5 1.5.225 1.5.5 1.5.5.675.5 1.5.225 1.5.5 1.5.5.45.5 1 .225 1 .5 1 .5.675.5 1.5.225 1.5.5 1.5.5.45.5 1 .225 1 .5 1 .5.675.5 1.5.225 1.5.5 1.5.5.45.5 1 .225 1 .5 1 .5.675.5 1.5.225 1.5.5 1.5.5.225.5.5c0 .317-3.833.5-10.5.5s-10.5-.183-10.5-.5c0-.275.225-.5.5-.5s.5-.675.5-1.5.225-1.5.5-1.5.5-.45.5-1 .225-1 .5-1 .5-.675.5-1.5.225-1.5.5-1.5.5-.45.5-1 .225-1 .5-1 .5-.675.5-1.5.225-1.5.5-1.5.5-.675.5-1.5.225-1.5.5-1.5.5-.45.5-1 .225-1 .5-1 .5-.675.5-1.5.225-1.5.5-1.5.5-.45.5-1 .225-1 .5-1 .5-.45.5-1 .225-1 .5-1 .5.45.5 1zm188 0c0 .55.225 1 .5 1s.5.45.5 1 .225 1 .5 1 .5.675.5 1.5.225 1.5.5 1.5.5.675.5 1.5.225 1.5.5 1.5.5.45.5 1 .225 1 .5 1 .5.675.5 1.5.225 1.5.5 1.5.5.45.5 1 .225 1 .5 1 .5.675.5 1.5.225 1.5.5 1.5.5.45.5 1 .225 1 .5 1 .5.675.5 1.5.225 1.5.5 1.5.5.225.5.5c0 .317-3.833.5-10.5.5s-10.5-.183-10.5-.5c0-.275.225-.5.5-.5s.5-.675.5-1.5.225-1.5.5-1.5.5-.45.5-1 .225-1 .5-1 .5-.675.5-1.5.225-1.5.5-1.5.5-.45.5-1 .225-1 .5-1 .5-.675.5-1.5.225-1.5.5-1.5.5-.675.5-1.5.225-1.5.5-1.5.5-.45.5-1 .225-1 .5-1 .5-.675.5-1.5.225-1.5.5-1.5.5-.45.5-1 .225-1 .5-1 .5-.45.5-1 .225-1 .5-1 .5.45.5 1z" clip-rule="evenodd"/>
</svg>